PathFileType	4	(X/Y/Z)	./resultDataOpenSim/trcMotMarkerGrf/sub09/qtm-01-04.trc
DataRate	CameraRate	NumFrames	NumMarkers	Units	OrigDataRate	OrigDataStartFrame	OrigNumFrames
250.000000	250.000000	14	24	m	250.000000	352	468
Frame#	Time	L.Toe.Tip			R.Toe.Tip			L.Ankle.Lat			R.Ankle.Lat			L.Ankle.Med			R.Ankle.Med			L.Heel			R.Heel			L.Knee.Lat			R.Knee.Lat			L.Knee.Med			R.Knee.Med			L.Thigh.Upper			R.Thigh.Upper			L.ASIS			R.ASIS			V.Sacral			L.Acromium			R.Acromium			C7			L.Elbow			R.Elbow			L.Wrist.Lat			R.Wrist.Lat
		X1	Y1	Z1	X2	Y2	Z2	X3	Y3	Z3	X4	Y4	Z4	X5	Y5	Z5	X6	Y6	Z6	X7	Y7	Z7	X8	Y8	Z8	X9	Y9	Z9	X10	Y10	Z10	X11	Y11	Z11	X12	Y12	Z12	X13	Y13	Z13	X14	Y14	Z14	X15	Y15	Z15	X16	Y16	Z16	X17	Y17	Z17	X18	Y18	Z18	X19	Y19	Z19	X20	Y20	Z20	X21	Y21	Z21	X22	Y22	Z22	X23	Y23	Z23	X24	Y24	Z24

352	1.404	0.84749986	0.089808485	-0.023024078	1.0500808	0.039478198	0.11856158	0.75629012	0.21177103	-0.056770704	0.90331883	0.059320174	0.15835379	0.78113074	0.20488259	0.039117244	0.91281234	0.09986553	0.067986254	0.67516388	0.22231505	-0.011818309	0.83121771	0.043036177	0.11108418	1.0508109	0.4977064	-0.061704157	1.0071965	0.50608319	0.21780542	1.0577178	0.48633839	0.064536829	0.98612	0.49560147	0.092998303	0.9141159	0.88754568	-0.091242526	0.92396712	0.90746853	0.27896255	0.99128825	0.97712033	-0.038078694	1.0075874	0.99007103	0.19987684	0.83112818	1.0398712	0.087077471	0.98645707	1.4358354	-0.092395244	0.97610704	1.4506596	0.23895894	0.91430574	1.491937	0.073401293	0.82558922	1.1057097	-0.14861973	0.84262298	1.1122668	0.34023762	0.95279708	0.87112215	-0.17727754	1.0144959	0.89664036	0.36025316
353	1.408	0.86764005	0.087887991	-0.023044186	1.0501398	0.039505868	0.11864173	0.77317466	0.20721512	-0.056584507	0.90342868	0.059747243	0.15821235	0.79872657	0.20088995	0.039114559	0.91321637	0.10034556	0.067935757	0.69167913	0.21556483	-0.011492381	0.83152847	0.043646114	0.11068026	1.0609043	0.50057861	-0.06146268	1.0080698	0.5063348	0.21793772	1.0675484	0.48958871	0.064319999	0.98713884	0.49604712	0.092854933	0.92033295	0.88932621	-0.091508282	0.92824694	0.90839574	0.27877408	0.99715494	0.97875419	-0.037974642	1.0129566	0.99113379	0.20010504	0.83664818	1.041215	0.086916226	0.99228713	1.4369331	-0.092544245	0.98228374	1.4520836	0.2387558	0.92034179	1.4932424	0.073299601	0.83043774	1.1074301	-0.14839393	0.84888718	1.1134559	0.34037897	0.95652339	0.87235673	-0.17809312	1.0226272	0.89899944	0.35951337
354	1.412	0.88798643	0.086011697	-0.023084313	1.0501898	0.039509189	0.11873407	0.79022628	0.20257903	-0.056376281	0.90355307	0.060177326	0.15809055	0.81671469	0.19685865	0.039040363	0.91375563	0.1008012	0.067820219	0.70843652	0.20865595	-0.011131647	0.83206584	0.044248562	0.11033852	1.0708952	0.50329843	-0.061254485	1.0090047	0.50666891	0.21816084	1.0761949	0.49271335	0.063877751	0.98826397	0.49645524	0.092860481	0.92653951	0.89102584	-0.091781317	0.93266243	0.90934873	0.27859302	1.0029756	0.98032988	-0.037842602	1.0183296	0.99215839	0.20031857	0.84220366	1.0424857	0.086716957	0.99811741	1.4379794	-0.092689249	0.98842521	1.4534473	0.23855791	0.92635722	1.4944812	0.073181727	0.83529839	1.1090904	-0.14820893	0.85515442	1.1145815	0.34054074	0.96026387	0.87354076	-0.17890946	1.0307091	0.90129444	0.35877902
355	1.416	0.90856317	0.084217233	-0.023135437	1.0502343	0.03949543	0.11883695	0.8074353	0.19787987	-0.056149996	0.90368799	0.060596868	0.15797827	0.83473903	0.19279695	0.039012954	0.91437221	0.10122973	0.067667736	0.72550603	0.20161544	-0.010822473	0.83274085	0.044794557	0.11016567	1.08079	0.50584941	-0.061089815	1.0100132	0.50702505	0.21843134	1.0839991	0.49565821	0.063286096	0.98944172	0.49684785	0.092949067	0.93275001	0.892642	-0.092083326	0.93719691	0.91032675	0.27843393	1.0087977	0.98183107	-0.037704836	1.0236996	0.9931436	0.20050807	0.8478008	1.0436815	0.086477571	1.003949	1.4389671	-0.092831049	0.99452655	1.4547511	0.23836052	0.93236544	1.4956514	0.073068921	0.84016517	1.1106699	-0.1480759	0.86147451	1.1156531	0.34074862	0.96403424	0.87466544	-0.17972489	1.0387363	0.90351597	0.35804361
356	1.42	0.92930571	0.082513889	-0.023193923	1.0502899	0.039489552	0.1189416	0.82479288	0.19313274	-0.055905289	0.90382904	0.061003463	0.15787417	0.85249139	0.18870964	0.03915234	0.91491858	0.10163544	0.067549088	0.7429078	0.19448532	-0.010605601	0.83339312	0.045272827	0.11015407	1.0905579	0.5082527	-0.060969137	1.0111339	0.50733921	0.21871975	1.0916238	0.49839014	0.062733997	0.99060224	0.49724614	0.093038846	0.93896564	0.89417245	-0.092393216	0.94178293	0.91129825	0.27828418	1.0146392	0.98324868	-0.037575186	1.0290598	0.99408583	0.20066873	0.85343673	1.0448003	0.086212541	1.0097811	1.4398873	-0.092970316	1.0005959	1.4559928	0.2381675	0.93837562	1.4967462	0.072996171	0.84504182	1.1121562	-0.14798027	0.86789385	1.1166775	0.34101557	0.96784306	0.87572949	-0.18053983	1.046703	0.90565875	0.35730236
357	1.424	0.95011074	0.080901126	-0.023264903	1.0503626	0.039498217	0.11903797	0.84229236	0.18834751	-0.055643197	0.90396219	0.061406795	0.15778692	0.8699816	0.18461164	0.039470411	0.91533639	0.10203281	0.067518729	0.76056659	0.18730715	-0.010414925	0.83387742	0.04573297	0.11017239	1.1001247	0.51055797	-0.060891339	1.0123536	0.50758775	0.21900132	1.100089	0.50095493	0.0624788	0.99178176	0.49763628	0.093112055	0.94518595	0.89561497	-0.092665241	0.94640968	0.9122448	0.27812014	1.020505	0.98457877	-0.037453564	1.0344093	0.9949805	0.2008048	0.85910687	1.045841	0.085933341	1.0156122	1.4407385	-0.093105825	1.0066397	1.4571682	0.23798077	0.94438888	1.4977593	0.072987131	0.84994626	1.1135654	-0.14788533	0.87443947	1.1176588	0.34134591	0.97168699	0.87673675	-0.18134921	1.0546048	0.90772518	0.35655738
358	1.428	0.97091687	0.079374102	-0.023347258	1.0504393	0.039492161	0.11911588	0.85992997	0.18353346	-0.055366348	0.90407533	0.061817077	0.15772173	0.88747999	0.18052466	0.039858844	0.91573362	0.10245305	0.067569245	0.77838702	0.18010091	-0.010158805	0.83415794	0.046232882	0.11011548	1.109451	0.51281109	-0.060861966	1.0136045	0.50778675	0.21925538	1.1104753	0.50346976	0.062749083	0.99309117	0.49799137	0.093209316	0.95141416	0.89696716	-0.092872492	0.95114729	0.91317352	0.27791154	1.026404	0.98582278	-0.037335372	1.039756	0.99582518	0.20092909	0.86478687	1.0467967	0.085622454	1.0214371	1.4415287	-0.093235403	1.0126534	1.4582752	0.23779458	0.95039457	1.4986989	0.073018471	0.85491183	1.1149458	-0.14775091	0.88107447	1.1185912	0.34172078	0.97555771	0.8776919	-0.18214651	1.0624454	0.90972449	0.35581402
359	1.432	0.99172177	0.077927509	-0.023432463	1.0505008	0.039435122	0.11916807	0.87770632	0.17870379	-0.055077921	0.90417085	0.062235093	0.15767008	0.90531801	0.17646414	0.040148196	0.91613161	0.1028934	0.067650234	0.7963381	0.17286973	-0.0098227581	0.83430188	0.046789053	0.10998217	1.1185675	0.5150111	-0.060885954	1.0148314	0.50797458	0.21947842	1.1232632	0.50602636	0.063614273	0.99457672	0.49830531	0.093364952	0.95764568	0.89822962	-0.093042418	0.95610132	0.91410333	0.27762002	1.0323447	0.98698386	-0.037221528	1.0451123	0.99662051	0.20105596	0.87040999	1.0476365	0.085224946	1.0272522	1.4422708	-0.093361707	1.018633	1.4593141	0.23760662	0.95637495	1.4995855	0.073028717	0.85996593	1.1163437	-0.14755945	0.88769832	1.1194568	0.34209492	0.97944906	0.87859654	-0.18293033	1.0702375	0.91166573	0.35507608
360	1.436	1.0125605	0.076576588	-0.023511284	1.050535	0.039332141	0.11919942	0.89562336	0.17386979	-0.054788077	0.90425559	0.062651938	0.15761507	0.92362366	0.17243639	0.040252992	0.91633184	0.10329472	0.067695766	0.81444821	0.16562568	-0.0094525008	0.83439225	0.047379763	0.10981113	1.1275093	0.5171105	-0.060967217	1.0160105	0.50818132	0.21966744	1.1379574	0.50861419	0.064922631	0.99616842	0.4985842	0.093544413	0.96386256	0.89940734	-0.093243107	0.96134282	0.91504646	0.27720944	1.0383248	0.98806046	-0.037115503	1.0504877	0.99736743	0.20119391	0.87590622	1.0483214	0.084689095	1.0330619	1.442977	-0.093496629	1.0245832	1.4602853	0.23742539	0.96232013	1.5004268	0.07297517	0.86509144	1.1177425	-0.14734316	0.8942302	1.1202374	0.34242901	0.98336326	0.87944505	-0.18370342	1.0779964	0.91354849	0.3543458
361	1.44	1.0334815	0.075358258	-0.023577826	1.0505448	0.039235756	0.11922601	0.91367707	0.16903859	-0.054511776	0.90432715	0.063058906	0.15754718	0.94222023	0.16844544	0.040256609	0.91622815	0.10362334	0.067657417	0.83274612	0.15840053	-0.0090796492	0.83447053	0.047970203	0.10961766	1.1362709	0.51905308	-0.061108383	1.0171328	0.50840864	0.21980948	1.1533174	0.51113104	0.06636044	0.99776475	0.49883042	0.093671997	0.97006119	0.90050515	-0.093528526	0.96686474	0.91599439	0.27667379	1.0443321	0.98904567	-0.037019782	1.0558823	0.99806372	0.20134214	0.88129444	1.0488733	0.084052573	1.038872	1.4436538	-0.093655362	1.0305164	1.4611896	0.23726501	0.96823174	1.5012093	0.072861616	0.87022801	1.1190576	-0.14717115	0.90066229	1.1209252	0.3427148	0.98731408	0.88022279	-0.18446918	1.0857316	0.91536197	0.35362449
362	1.444	1.0545077	0.074298445	-0.023634526	1.0505573	0.039199676	0.11925992	0.93186428	0.16421487	-0.054257919	0.90438105	0.06345589	0.15747051	0.96085385	0.16449181	0.040299932	0.91604631	0.10392492	0.06754673	0.85122715	0.15122727	-0.0086959053	0.83453711	0.048533502	0.10939215	1.1448323	0.52081223	-0.061303786	1.0181985	0.50864164	0.21991015	1.1678732	0.51344015	0.067570922	0.99929421	0.49905648	0.093703056	0.97627081	0.90151966	-0.093892	0.97256262	0.91689812	0.27607724	1.0503548	0.98993261	-0.03693323	1.0612887	0.99870342	0.20149187	0.88670414	1.0493944	0.083459905	1.0446809	1.44429	-0.093838655	1.0364457	1.462029	0.23713551	0.97411433	1.5019196	0.072716646	0.87533163	1.1202145	-0.14708524	0.90702218	1.1215217	0.34296415	0.99131598	0.88091617	-0.18522923	1.0934427	0.91709515	0.35291141
363	1.448	1.0756152	0.073392658	-0.023686624	1.0506314	0.039248101	0.11930183	0.95020314	0.1593944	-0.054026459	0.9044249	0.063846751	0.15739079	0.97941605	0.16057115	0.040449512	0.91607374	0.10425756	0.067417013	0.86991621	0.14411467	-0.0082895632	0.83458219	0.049060052	0.10912647	1.1531728	0.52240611	-0.061553764	1.0192128	0.50886756	0.22000269	1.180451	0.51542755	0.0682799	1.0007106	0.49928578	0.093633729	0.98252383	0.90243672	-0.0942633	0.97821689	0.91764788	0.27558479	1.0563911	0.99072104	-0.036849479	1.0666986	0.99928017	0.20163282	0.89225782	1.0499729	0.08304311	1.0504802	1.4448567	-0.094025255	1.0423686	1.4628011	0.23703081	0.9799701	1.5025522	0.072570305	0.88041043	1.1212067	-0.14706587	0.91332638	1.1220328	0.3431885	0.99536895	0.8815271	-0.18597957	1.1011207	0.91874373	0.35220396
364	1.452	1.0967595	0.072627134	-0.023732164	1.0508449	0.039382412	0.11934849	0.96872407	0.15457371	-0.053811793	0.90447499	0.06422851	0.15730184	0.99792826	0.15668232	0.040695748	0.91633279	0.10462641	0.067308879	0.88894511	0.13703799	-0.0078753108	0.83461856	0.049558056	0.10883645	1.1612538	0.52386334	-0.061874254	1.0201839	0.5090731	0.22010864	1.1906208	0.51704518	0.068402646	1.0019876	0.49952953	0.093466473	0.98882181	0.9032423	-0.094565924	0.98353452	0.91811311	0.2754057	1.0624494	0.99141749	-0.036766598	1.0721102	0.99979049	0.20176093	0.89796675	1.0505927	0.082796833	1.0562628	1.4453316	-0.094193443	1.0482613	1.4634961	0.23692725	0.98579886	1.5030981	0.072440682	0.88549522	1.1220707	-0.14706704	0.9195805	1.1224614	0.3433925	0.99946233	0.88206587	-0.18671115	1.1087552	0.92030747	0.35149974
365	1.456	1.1179102	0.072003817	-0.023765454	1.0512462	0.039583614	0.11939837	0.98742468	0.14978712	-0.053606636	0.90454129	0.064590732	0.15718732	1.0164928	0.15284041	0.04096532	0.91667592	0.10500316	0.067229636	0.90846708	0.12995271	-0.0074561572	0.83467354	0.050048545	0.10854756	1.1690343	0.52517852	-0.062273153	1.0211368	0.50923923	0.22021377	1.1988154	0.51832063	0.068061857	1.0031505	0.49977545	0.093223568	0.99515554	0.90393723	-0.094794644	0.98830168	0.91827743	0.2756085	1.0685378	0.99202631	-0.036691081	1.0775288	1.0002329	0.20187917	0.90376999	1.0511648	0.082593562	1.0620283	1.4457164	-0.094341125	1.0541025	1.4641042	0.23680434	0.99159666	1.5035488	0.072317038	0.89060743	1.12284	-0.14705764	0.92579708	1.1228048	0.34357889	1.0035888	0.88253505	-0.1874188	1.116341	0.92178645	0.35079827
